<?xml version="1.0" encoding="UTF-8"?>
<svg id="Layer_1" data-name="Layer 1" xmlns="http://www.w3.org/2000/svg" viewBox="0 0 1920 1920">
  <defs>
    <style>
      .cls-1 {
        fill: #b49750;
      }

      .cls-2 {
        fill: #141e31;
      }

      .cls-3 {
        stroke-width: 3.82px;
      }

      .cls-3, .cls-4 {
        fill: none;
        stroke: #000;
        stroke-miterlimit: 10;
      }

      .cls-5 {
        fill: #151f33;
      }

      .cls-4 {
        stroke-width: 3.32px;
      }
    </style>
  </defs>
  <path class="cls-5" d="M64.89,467.37h297.8s-79.95,6,0,163.89c79.95,157.89,233.84,475.67,233.84,475.67l233.84-551.62s-7.99-87.94-93.94-87.94h307.79c45.97,0,267.82,27.98,301.79,159.89,33.98,131.91-27.98,271.81-267.82,289.8,0,0,135.91,183.87,175.88,243.83,39.97,59.96,187.87,273.81,405.72,275.81,0,0-131.91,69.95-305.79-15.99-173.88-85.94-363.75-424.85-391.73-455.26-27.98-30.41-99.93-52.39-99.93-52.39v-23.98s231.84,23.98,311.79-73.95c79.95-97.93,19.99-261.82-77.95-279.81-97.93-17.99-185.87-11.99-185.87-11.99l-333.77,797.45S204.79,591.28,194.8,569.3c-9.99-21.98-63.96-101.93-129.91-101.93Z"/>
  <path class="cls-1" d="M1526.55,1377.41v-342.43l-87.94-87.94-95.27,95.27v167.88s27.98,59.96,183.21,167.22Z"/>
  <path class="cls-1" d="M1555.2,1387.4v-215.19l49.97-33.31,76.61,48.63s-37.31,76.61-63.29,119.92c-25.98,43.3-63.29,79.95-63.29,79.95Z"/>
  <path class="cls-4" d="M1695.63,903.39c0,5.45-.07,10.9-.21,16.32-9.06-404.36-349.78-729.4-768.83-729.4-228,0-432.81,96.23-573.64,249.09h-22.93c141-165.49,355.87-271.21,596.57-271.21,424.74,0,769.04,329.18,769.04,735.21Z"/>
  <path class="cls-3" d="M1695.63,903.39c0,5.45-.07,10.9-.21,16.32-9.06-404.36-349.78-729.4-768.83-729.4-228,0-432.81,96.23-573.64,249.09h-22.93c141-165.49,355.87-271.21,596.57-271.21,424.74,0,769.04,329.18,769.04,735.21Z"/>
  <path class="cls-2" d="M1669.02,1483.68c-160.75,199.01-410.98,326.95-692.06,326.95-484.98,0-878.12-380.86-878.12-850.66,0-6.12.07-12.25.21-18.33,9.52,429.31,378.95,774.56,833.28,774.56,224.71,0,428.67-84.48,578.59-221.77,56.8,3.79,111.17-1.81,158.1-10.76Z"/>
  <path class="cls-2" d="M1855.11,959.98c0,164.08-47.96,317.29-131.02,447.22-48.98.32-89.61-4.11-122.6-10.55,103.27-131.8,164.36-295.14,164.36-472.03,0-437.17-373.18-791.59-833.53-791.59-175.58,0-338.46,51.57-472.81,139.59,145.11-102.67,323.95-163.27,517.44-163.27,484.98,0,878.16,380.86,878.16,850.62Z"/>
  <path class="cls-1" d="M1381.83,1537.51c22.53-16.06,44.12-33.29,64.67-51.6-4.53-.91-9.07-1.92-13.61-2.98-33.62-9.16-89.56-33.83-89.56-33.83v72.19c-9.85,6.08-19.83,11.97-29.98,17.63v-100.22c-11.33-6.66-51.96-35.97-51.96-35.97v162.68c-4.42,2.05-8.86,4.04-13.32,6.01v-174.68c-17.32-13.32-40.47-43.47-40.47-43.47l-33.48,33.48v212.88c-7.94,2.58-15.93,5.02-23.98,7.36v-316.17l-41.97-47.97-45.97,45.97v338.34c-11.57,1.97-23.23,3.7-34.98,5.17v-234.59l-37.97-37.97-50.96,50.97v223.85l-.43,3.9c-7.09.18-4.12.1-11.26.1-419.05,0-759.8-320.37-768.86-718.85-.14,5.49-.21,11.04-.21,16.56,0,411.97,344.33,745.97,769.08,745.97,76.27,0,149.93-10.79,219.48-30.85l4.07-.83v-.37c.26-.08.52-.15.77-.23,36.9-10.9,72.69-25.23,107.29-42.04l23.11-11.23c35.03-17.02,68.82-36.56,100.52-59.17Z"/>
  <path class="cls-1" d="M1695.63,903.39c0,5.45-.07,10.9-.21,16.32-9.06-404.36-349.78-729.4-768.83-729.4-228,0-432.81,96.23-573.64,249.09h-22.93c141-165.49,355.87-271.21,596.57-271.21,424.74,0,769.04,329.18,769.04,735.21Z"/>
</svg>